<svg xmlns="http://www.w3.org/2000/svg" width="860" height="470" viewBox="0 0 860 470" font-family="system-ui,Segoe UI,Roboto,sans-serif">
  <defs>
    <linearGradient id="bg" x1="0" y1="0" x2="1" y2="1">
      <stop offset="0" stop-color="#241a44"/><stop offset="1" stop-color="#0f0b1a"/>
    </linearGradient>
    <linearGradient id="btn" x1="0" y1="0" x2="1" y2="0">
      <stop offset="0" stop-color="#6C4AB6"/><stop offset="1" stop-color="#8D72E1"/>
    </linearGradient>
  </defs>
  <rect width="860" height="470" fill="url(#bg)"/>
  <text x="40" y="56" fill="#efeaff" font-size="26" font-weight="700">🎰 Bulk Social-Gaming Site Builder</text>
  <text x="40" y="84" fill="#a99fc4" font-size="14">Paste up to 10 domains → 10 unique 21+ sites → download one ZIP</text>

  <!-- left card -->
  <rect x="40" y="110" width="380" height="320" rx="16" fill="#1a1430" stroke="#2c2447"/>
  <text x="62" y="142" fill="#efeaff" font-size="13" font-weight="600">Domains (one per line, max 10)</text>
  <rect x="62" y="156" width="336" height="180" rx="10" fill="#120e24" stroke="#2c2447"/>
  <g fill="#c9c0e6" font-size="13" font-family="ui-monospace,monospace">
    <text x="76" y="182">echo-arcade.com</text>
    <text x="76" y="204">playwave-studio.com</text>
    <text x="76" y="226">pixel-grove.io</text>
    <text x="76" y="248">lumen-play.com</text>
    <text x="76" y="270">nimbus-games.gg</text>
    <text x="76" y="292">cinder-loop.com</text>
  </g>
  <rect x="62" y="352" width="336" height="46" rx="23" fill="url(#btn)"/>
  <text x="230" y="380" fill="#fff" font-size="15" font-weight="700" text-anchor="middle">Build sites</text>

  <!-- right card -->
  <rect x="440" y="110" width="380" height="320" rx="16" fill="#1a1430" stroke="#2c2447"/>
  <text x="462" y="142" fill="#efeaff" font-size="13" font-weight="600">Progress</text>
  <g font-size="13">
    <g transform="translate(462,158)">
      <text x="0" y="14" fill="#efeaff">Echo Arcade</text>
      <rect x="270" y="0" width="66" height="20" rx="10" fill="rgba(49,196,141,.16)"/>
      <text x="303" y="14" fill="#31c48d" font-size="11" font-weight="700" text-anchor="middle">done</text>
    </g>
    <g transform="translate(462,190)">
      <text x="0" y="14" fill="#efeaff">Playwave Studio</text>
      <rect x="270" y="0" width="66" height="20" rx="10" fill="rgba(49,196,141,.16)"/>
      <text x="303" y="14" fill="#31c48d" font-size="11" font-weight="700" text-anchor="middle">done</text>
    </g>
    <g transform="translate(462,222)">
      <text x="0" y="14" fill="#efeaff">Pixel Grove</text>
      <rect x="250" y="0" width="86" height="20" rx="10" fill="rgba(141,114,225,.22)"/>
      <text x="293" y="14" fill="#cbb8ff" font-size="11" font-weight="700" text-anchor="middle">building</text>
    </g>
    <g transform="translate(462,254)">
      <text x="0" y="14" fill="#a99fc4">Lumen Play</text>
      <rect x="272" y="0" width="64" height="20" rx="10" fill="#2c2447"/>
      <text x="304" y="14" fill="#a99fc4" font-size="11" font-weight="700" text-anchor="middle">queued</text>
    </g>
  </g>
  <text x="462" y="300" fill="#31c48d" font-size="13" font-weight="700">✓ QA gate passed</text>
  <rect x="462" y="316" width="230" height="44" rx="22" fill="#31c48d"/>
  <text x="577" y="343" fill="#063" font-size="14" font-weight="800" text-anchor="middle">⬇ Download ZIP (10 sites)</text>
  <rect x="462" y="372" width="336" height="40" rx="8" fill="#120e24" stroke="#2c2447"/>
  <text x="476" y="397" fill="#8f87a6" font-size="11" font-family="ui-monospace,monospace">Packaging ZIP… Done — your ZIP is ready.</text>
</svg>
